<svg width="71" height="70" viewBox="0 0 71 70" fill="none" xmlns="http://www.w3.org/2000/svg">
<path d="M35.5 62.7083C50.5759 62.7083 59.2117 43.6741 61.4073 26.0495L61.4073 26.0495C61.5792 24.6702 61.6651 23.9806 61.4266 23.3102C61.3515 23.0991 61.24 22.8732 61.1182 22.6851C60.7315 22.0879 60.0984 21.7166 58.8322 20.9741L38.2316 8.8935C37.0507 8.20096 36.4602 7.85469 35.8176 7.78627C35.6065 7.76379 35.3935 7.76379 35.1824 7.78627C34.5398 7.85469 33.9493 8.20096 32.7684 8.8935L12.1678 20.9741C10.9016 21.7166 10.2685 22.0879 9.88177 22.6851C9.75998 22.8732 9.64853 23.0991 9.57342 23.3102C9.33493 23.9806 9.42085 24.6702 9.59268 26.0495C11.7883 43.6741 20.4241 62.7083 35.5 62.7083Z" fill="#FEE0D9"/>
<path d="M28.2083 36.4583L31.9172 41.4034C32.1889 41.7657 32.3247 41.9468 32.5063 41.9866C32.5644 41.9993 32.6243 42.0016 32.6831 41.9932C32.8671 41.9673 33.0163 41.7969 33.3145 41.456L42.7917 30.625M35.5 62.7083C50.5759 62.7083 59.2117 43.6741 61.4073 26.0495C61.5792 24.6702 61.6651 23.9806 61.4266 23.3102C61.3515 23.0991 61.24 22.8732 61.1182 22.6851C60.7315 22.0879 60.0984 21.7166 58.8322 20.9741L38.2316 8.8935C37.0507 8.20096 36.4602 7.85469 35.8176 7.78627C35.6065 7.76379 35.3935 7.76379 35.1824 7.78627C34.5398 7.85469 33.9493 8.20096 32.7684 8.8935L12.1678 20.9741C10.9016 21.7166 10.2685 22.0879 9.88177 22.6851C9.75998 22.8732 9.64853 23.0991 9.57342 23.3102C9.33493 23.9806 9.42085 24.6702 9.59268 26.0495C11.7883 43.6741 20.4241 62.7083 35.5 62.7083Z" stroke="#512729" stroke-width="1.5" stroke-linecap="round" stroke-linejoin="round"/>
</svg>
