<svg width="650" height="1212" viewBox="0 0 650 1212" fill="none" xmlns="http://www.w3.org/2000/svg">
<path d="M258.301 352.758C212.439 313.809 169.532 134.577 175.865 113.68C182.199 92.7833 207.686 108.512 223.249 109.931C238.801 111.351 244.363 92.4403 258.767 93.5321C273.172 94.6239 288.873 110.61 300.262 114.182C311.656 117.746 342.601 96.1024 349.847 108.865C357.094 121.628 283.545 374.199 258.301 352.758Z" fill="#572B2C" stroke="#512729" stroke-miterlimit="10"/>
<path d="M341.786 426.257C386.119 467.371 551.562 473.081 568.259 461.383C584.949 449.68 565.448 425.475 560.647 408.817C555.847 392.172 570.99 381.765 566.739 366.298C562.487 350.83 545.007 337.363 539.294 325.754C533.586 314.138 545.281 275.406 532.538 270.425C519.796 265.445 317.375 403.622 341.786 426.257Z" fill="#572B2C" stroke="#512729" stroke-miterlimit="10"/>
<path d="M303.508 370.435C289.729 308.376 358.647 142.495 375.602 131.22C392.557 119.944 403.601 149.966 415.034 162.107C426.467 174.248 441.676 163.923 452.38 174.991C463.091 186.065 466.287 209.317 473.203 220.122C480.124 230.919 516.879 236.596 515.269 251.399C513.661 266.183 311.091 404.596 303.508 370.435Z" fill="#572B2C" stroke="#512729" stroke-miterlimit="10"/>
<path d="M268.359 440.778C268.359 440.778 133.383 632.111 85.6674 735.777C37.9466 839.45 -150.71 984.22 -165.535 1031.07" stroke="#5E2F2F" stroke-miterlimit="10" stroke-linecap="round" stroke-linejoin="round"/>
<path d="M85.3942 733.321C85.3942 733.321 242.1 614.342 248.646 610.218C255.187 606.1 417.93 591.727 417.93 591.727C417.93 591.727 269.743 706.359 218.203 720.176C166.668 733.986 85.3942 733.321 85.3942 733.321Z" fill="#572B2C" stroke="#512729" stroke-miterlimit="10" stroke-linecap="round" stroke-linejoin="round"/>
<path d="M85.3941 734.571C85.3941 734.571 154.745 716.385 157.533 715.919C160.333 715.452 219.437 734.377 219.437 734.377C219.437 734.377 153.606 752.311 133.793 749.518C113.982 746.738 85.3941 734.571 85.3941 734.571Z" fill="#5E2F2F"/>
<path d="M297.644 416.854C297.644 416.854 370.615 371.078 421.148 403.103C471.682 435.128 484.976 438.036 484.976 438.036C484.976 438.036 358.302 457.108 338.717 453.31C317.367 449.172 297.644 416.854 297.644 416.854Z" fill="#5E2F2F" stroke="#512729" stroke-miterlimit="10" stroke-linecap="round" stroke-linejoin="round"/>
<path d="M281.463 417.943C281.463 417.943 281.798 322.859 331.667 291.15C381.542 259.446 390.371 248.152 390.371 248.152C390.371 248.152 342.744 380.864 330.129 397.754C316.371 416.187 281.463 417.943 281.463 417.943Z" fill="#5E2F2F"/>
<path d="M279.083 401.903C279.083 401.903 302.095 311.784 262.699 263.99C223.303 216.196 217.729 202.357 217.729 202.357C217.729 202.357 230.22 344.949 238.009 365.447C246.503 387.787 279.083 401.903 279.083 401.903Z" fill="#5E2F2F"/>
<path d="M263.905 369.272C272.731 362.129 280.915 367.774 300.412 383.749C319.898 399.725 331.806 419.441 328.401 427.712C324.995 435.97 271.332 448.742 264.1 435.162C256.867 421.569 246.513 383.354 263.905 369.272Z" fill="#5E2F2F" stroke="#512729" stroke-miterlimit="10" stroke-linecap="round" stroke-linejoin="round"/>
</svg>
