<svg width="131" height="50" viewBox="0 0 131 50" fill="none" xmlns="http://www.w3.org/2000/svg">
<path d="M21.21 14.63C21.21 20.44 24.85 25.2 27.79 25.2C24.85 25.2 21.21 29.96 21.21 35.77C21.21 29.96 17.64 25.2 14.63 25.2C17.64 25.2 21.21 20.44 21.21 14.63ZM43.89 43.19C43.89 46.13 45.15 48.51 49 48.51H42.14C38.43 48.51 35.42 46.34 35.14 43.61C31.5 46.69 26.88 48.51 21.91 48.51C9.8 48.51 0 37.66 0 24.29C0 10.85 9.8 0 21.91 0C31.29 0 39.27 6.44 42.42 15.54C38.6357 16.0603 36.4569 15.9923 32.4702 15.01C27.7802 5.42001 20.23 0.069999 14.14 2.03C7.21 4.34 4.97 16.17 9.24 28.42C13.44 40.74 22.54 48.86 29.54 46.55C32.06 45.78 33.95 43.68 35.14 40.88V35.49C35.14 32.55 33.88 30.1 29.96 30.1H36.89C40.74 30.1 43.89 32.55 43.89 35.49V43.19Z" fill="#FF835A"/>
<path d="M54.528 46.344H53.744V31.496H54.528V46.344ZM61.1914 42.792L61.1754 42.712C61.1754 42.6373 61.218 42.584 61.3034 42.552C61.3247 42.5413 61.3567 42.536 61.3994 42.536C61.474 42.536 61.5327 42.5733 61.5754 42.648C62.514 44.024 63.6447 44.712 64.9674 44.712C65.458 44.712 65.842 44.584 66.1194 44.328C66.4074 44.072 66.5514 43.7413 66.5514 43.336C66.5514 43.1013 66.4767 42.8827 66.3274 42.68C66.1887 42.4773 65.9914 42.3173 65.7354 42.2C65.4687 42.072 65.154 41.9547 64.7914 41.848C64.4287 41.7413 64.2047 41.6773 64.1194 41.656C63.618 41.5173 63.266 41.4053 63.0634 41.32C62.05 40.8827 61.5434 40.2213 61.5434 39.336C61.5434 39.0587 61.618 38.7547 61.7674 38.424C61.9167 38.0827 62.1674 37.784 62.5194 37.528C62.882 37.272 63.362 37.144 63.9594 37.144C64.226 37.144 64.466 37.1707 64.6794 37.224C64.9034 37.2667 65.1487 37.3307 65.4154 37.416C65.65 37.48 65.7887 37.512 65.8314 37.512C65.9914 37.512 66.1514 37.464 66.3114 37.368C66.482 37.272 66.61 37.1493 66.6954 37L67.3674 39.192C67.378 39.224 67.3834 39.2613 67.3834 39.304C67.3834 39.368 67.3407 39.4213 67.2554 39.464C67.234 39.4747 67.202 39.48 67.1594 39.48C67.0954 39.48 67.0367 39.4533 66.9834 39.4C66.6527 38.952 66.21 38.5467 65.6554 38.184C65.1114 37.8213 64.53 37.64 63.9114 37.64C63.41 37.64 63.042 37.7733 62.8074 38.04C62.5727 38.296 62.4554 38.5627 62.4554 38.84C62.4554 39.064 62.53 39.256 62.6794 39.416C62.8287 39.576 63.0794 39.7413 63.4314 39.912C63.6767 40.0293 64.1034 40.1787 64.7114 40.36C65.4047 40.5627 65.922 40.744 66.2634 40.904C66.7434 41.128 67.1007 41.4107 67.3354 41.752C67.5807 42.0933 67.7034 42.4773 67.7034 42.904C67.7034 43.5973 67.442 44.1573 66.9194 44.584C66.4074 45.0107 65.7194 45.224 64.8554 45.224C64.5887 45.224 64.3274 45.1973 64.0714 45.144C63.8154 45.0907 63.5007 45.0107 63.1274 44.904C62.8714 44.8187 62.6954 44.776 62.5994 44.776C62.4607 44.776 62.3327 44.8133 62.2154 44.888C62.098 44.9627 61.9647 45.0907 61.8154 45.272L61.1914 42.792ZM77.8306 44.584C77.916 44.584 77.9586 44.648 77.9586 44.776C77.9586 44.9253 77.916 45 77.8306 45H74.1506C74.0973 45 74.06 44.984 74.0386 44.952C74.028 44.9093 74.0226 44.8507 74.0226 44.776C74.0226 44.648 74.0653 44.584 74.1506 44.584H74.3426C74.5133 44.584 74.652 44.5413 74.7586 44.456C74.876 44.3707 74.9346 44.2693 74.9346 44.152C74.9346 44.0453 74.8973 43.944 74.8226 43.848C74.684 43.624 73.9853 42.6747 72.7266 41L71.6226 42.04V43.88C71.6226 44.168 71.708 44.36 71.8786 44.456C72.06 44.5413 72.3053 44.584 72.6146 44.584H72.8226C72.8973 44.584 72.9346 44.648 72.9346 44.776C72.9346 44.9253 72.8973 45 72.8226 45H69.0786C68.9933 45 68.9506 44.9253 68.9506 44.776C68.9506 44.648 68.9933 44.584 69.0786 44.584H69.2706C69.58 44.584 69.82 44.5413 69.9906 44.456C70.172 44.36 70.2626 44.168 70.2626 43.88L70.2306 35C70.2306 34.6693 70.1346 34.4507 69.9426 34.344C69.7506 34.2267 69.468 34.168 69.0946 34.168C68.988 34.168 68.9346 34.088 68.9346 33.928C68.9346 33.8533 68.9666 33.8053 69.0306 33.784L71.6226 33.176V41.288C72.1986 40.7653 72.812 40.2 73.4626 39.592C74.124 38.9733 74.508 38.6107 74.6146 38.504C74.7 38.3973 74.7426 38.2853 74.7426 38.168C74.7426 38.04 74.684 37.9333 74.5666 37.848C74.4493 37.752 74.268 37.704 74.0226 37.704H73.8306C73.7453 37.704 73.7026 37.6347 73.7026 37.496C73.7026 37.3573 73.7453 37.288 73.8306 37.288H77.4466C77.5426 37.288 77.5906 37.3573 77.5906 37.496C77.5906 37.6133 77.5426 37.6827 77.4466 37.704H77.2546C76.668 37.736 76.0973 37.992 75.5426 38.472C75.1266 38.824 74.492 39.3893 73.6386 40.168C74.0226 40.68 74.3586 41.1173 74.6466 41.48C75.0413 42.0133 75.3986 42.4933 75.7186 42.92C76.0493 43.3467 76.2946 43.6667 76.4546 43.88C76.6466 44.1147 76.8333 44.2907 77.0146 44.408C77.196 44.5253 77.4093 44.584 77.6546 44.584H77.8306ZM80.5124 35.224C80.235 35.224 79.995 35.1227 79.7924 34.92C79.5897 34.7173 79.4884 34.4773 79.4884 34.2C79.4884 33.912 79.5897 33.672 79.7924 33.48C79.995 33.2773 80.235 33.176 80.5124 33.176C80.8004 33.176 81.0404 33.2773 81.2324 33.48C81.435 33.672 81.5364 33.912 81.5364 34.2C81.5364 34.4773 81.435 34.7173 81.2324 34.92C81.0404 35.1227 80.8004 35.224 80.5124 35.224ZM78.7364 45C78.651 45 78.6084 44.9253 78.6084 44.776C78.6084 44.6373 78.651 44.568 78.7364 44.568H78.9284C79.2484 44.568 79.499 44.5253 79.6804 44.44C79.8617 44.3547 79.9524 44.1627 79.9524 43.864L79.9044 38.968C79.9044 38.744 79.8564 38.5787 79.7604 38.472C79.675 38.3547 79.5577 38.28 79.4084 38.248C79.2697 38.216 79.0564 38.184 78.7684 38.152C78.7044 38.1413 78.6617 38.12 78.6404 38.088C78.6297 38.056 78.6244 38.008 78.6244 37.944C78.6244 37.8907 78.6297 37.848 78.6404 37.816C78.651 37.784 78.6724 37.7627 78.7044 37.752C78.8537 37.6987 79.723 37.496 81.3124 37.144L81.2964 43.864C81.2964 44.152 81.387 44.344 81.5684 44.44C81.7604 44.5253 82.011 44.568 82.3204 44.568H82.5284C82.603 44.568 82.6404 44.6373 82.6404 44.776C82.6404 44.9253 82.603 45 82.5284 45H78.7364ZM92.7395 44.584C92.8248 44.584 92.8675 44.6533 92.8675 44.792C92.8675 44.9307 92.8248 45 92.7395 45H88.9955C88.9208 45 88.8835 44.9307 88.8835 44.792C88.8835 44.6533 88.9208 44.584 88.9955 44.584H89.2195C89.5182 44.584 89.7528 44.5413 89.9235 44.456C90.1048 44.36 90.1955 44.168 90.1955 43.88L90.1795 40.952L90.1635 39.832C90.1422 38.552 89.6248 37.912 88.6115 37.912C88.2062 37.912 87.8115 38.0347 87.4275 38.28C87.0542 38.5147 86.7342 38.8667 86.4675 39.336L86.4515 43.88C86.4515 44.168 86.5422 44.36 86.7235 44.456C86.9048 44.5413 87.1502 44.584 87.4595 44.584H87.6515C87.7262 44.584 87.7635 44.6533 87.7635 44.792C87.7635 44.9307 87.7262 45 87.6515 45H83.9235C83.8382 45 83.7955 44.9307 83.7955 44.792C83.7955 44.6533 83.8382 44.584 83.9235 44.584H84.1155C84.4248 44.584 84.6702 44.5413 84.8515 44.456C85.0328 44.36 85.1235 44.168 85.1235 43.88L85.0755 38.968C85.0755 38.648 84.9848 38.44 84.8035 38.344C84.6328 38.248 84.3395 38.1787 83.9235 38.136C83.8595 38.1253 83.8168 38.0987 83.7955 38.056C83.7848 38.0133 83.7795 37.9547 83.7795 37.88C83.7795 37.816 83.8062 37.7733 83.8595 37.752C84.0088 37.6987 84.8782 37.496 86.4675 37.144V38.568C87.1502 37.6187 87.9768 37.144 88.9475 37.144C89.8008 37.144 90.4408 37.3787 90.8675 37.848C91.3048 38.3173 91.5395 38.888 91.5715 39.56C91.5822 39.7733 91.5875 40.1947 91.5875 40.824C91.5875 41.688 91.5768 42.7067 91.5555 43.88C91.5555 44.168 91.6408 44.36 91.8115 44.456C91.9928 44.5413 92.2382 44.584 92.5475 44.584H92.7395ZM101.981 45.208C101.298 45.208 100.658 45.0427 100.061 44.712C99.4741 44.3813 98.9994 43.9173 98.6368 43.32C98.2741 42.712 98.0928 42.0133 98.0928 41.224C98.0928 40.584 98.2421 39.9493 98.5408 39.32C98.8501 38.6907 99.3034 38.1733 99.9008 37.768C100.498 37.352 101.207 37.144 102.029 37.144C102.647 37.144 103.175 37.24 103.613 37.432C104.05 37.6133 104.375 37.8373 104.589 38.104C104.813 38.3707 104.925 38.6267 104.925 38.872C104.925 39.0747 104.855 39.2507 104.717 39.4C104.578 39.5493 104.418 39.624 104.237 39.624C104.023 39.624 103.837 39.5493 103.677 39.4C103.527 39.2507 103.367 39.0213 103.197 38.712C102.823 38.0293 102.359 37.688 101.805 37.688C101.399 37.688 101.031 37.8373 100.701 38.136C100.381 38.424 100.125 38.8347 99.9328 39.368C99.7514 39.8907 99.6608 40.4987 99.6608 41.192C99.6608 41.9493 99.7834 42.5733 100.029 43.064C100.285 43.5547 100.605 43.912 100.989 44.136C101.383 44.36 101.794 44.472 102.221 44.472C103.159 44.472 103.938 44.04 104.557 43.176C104.61 43.112 104.663 43.08 104.717 43.08C104.77 43.08 104.813 43.0907 104.845 43.112C104.919 43.1547 104.957 43.208 104.957 43.272C104.957 43.3147 104.946 43.352 104.925 43.384C104.637 43.928 104.237 44.3707 103.725 44.712C103.223 45.0427 102.642 45.208 101.981 45.208ZM114.343 43.672C114.428 43.672 114.471 43.7093 114.471 43.784L114.455 43.88C114.306 44.3173 114.066 44.648 113.735 44.872C113.404 45.0853 113.079 45.192 112.759 45.192C112.407 45.192 112.119 45.0907 111.895 44.888C111.682 44.6853 111.527 44.4133 111.431 44.072C111.047 44.4453 110.599 44.7333 110.087 44.936C109.586 45.128 109.084 45.224 108.583 45.224C107.943 45.224 107.436 45.0747 107.063 44.776C106.69 44.4773 106.503 44.072 106.503 43.56C106.503 43.1547 106.594 42.808 106.775 42.52C106.967 42.2213 107.266 41.9547 107.671 41.72C107.916 41.5813 108.22 41.4587 108.583 41.352C108.946 41.2453 109.399 41.128 109.943 41C110.135 40.9467 110.348 40.8933 110.583 40.84C110.828 40.776 111.095 40.7013 111.383 40.616V39.928C111.383 39.384 111.356 38.9893 111.303 38.744C111.26 38.488 111.159 38.264 110.999 38.072C110.786 37.7947 110.418 37.656 109.895 37.656C109.543 37.656 109.26 37.752 109.047 37.944C108.844 38.1253 108.674 38.4293 108.535 38.856C108.354 39.4427 108.06 39.736 107.655 39.736C107.452 39.736 107.266 39.672 107.095 39.544C106.924 39.4053 106.839 39.224 106.839 39C106.839 38.7973 106.914 38.5573 107.063 38.28C107.223 37.992 107.527 37.7307 107.975 37.496C108.434 37.2613 109.084 37.144 109.927 37.144C110.46 37.144 110.94 37.2293 111.367 37.4C111.804 37.56 112.124 37.768 112.327 38.024C112.498 38.248 112.61 38.4827 112.663 38.728C112.727 38.9627 112.759 39.256 112.759 39.608C112.759 40.1947 112.754 40.6853 112.743 41.08L112.727 43.192C112.727 43.64 112.802 43.9387 112.951 44.088C113.1 44.2267 113.255 44.296 113.415 44.296C113.554 44.296 113.692 44.2533 113.831 44.168C113.98 44.0827 114.114 43.944 114.231 43.752C114.263 43.6987 114.3 43.672 114.343 43.672ZM109.319 44.424C109.671 44.424 110.023 44.3493 110.375 44.2C110.738 44.04 111.063 43.8107 111.351 43.512C111.34 43.448 111.335 43.352 111.335 43.224L111.367 41.16C110.215 41.4373 109.367 41.7413 108.823 42.072C108.279 42.4027 108.007 42.8347 108.007 43.368C108.007 43.6667 108.114 43.9173 108.327 44.12C108.54 44.3227 108.871 44.424 109.319 44.424ZM120.417 37.128C120.769 37.128 121.063 37.224 121.297 37.416C121.543 37.608 121.665 37.8373 121.665 38.104C121.665 38.3067 121.591 38.4773 121.441 38.616C121.292 38.7547 121.111 38.824 120.897 38.824C120.716 38.824 120.487 38.728 120.209 38.536C120.071 38.44 119.948 38.3653 119.841 38.312C119.735 38.2587 119.617 38.232 119.489 38.232C118.988 38.232 118.455 38.648 117.889 39.48L117.873 43.896C117.873 44.184 117.964 44.3707 118.145 44.456C118.327 44.5413 118.572 44.584 118.881 44.584H119.073C119.159 44.584 119.201 44.6533 119.201 44.792C119.201 44.9307 119.159 45 119.073 45H115.345C115.271 45 115.233 44.9307 115.233 44.792C115.233 44.6533 115.271 44.584 115.345 44.584H115.537C115.847 44.584 116.087 44.5413 116.257 44.456C116.439 44.3707 116.529 44.184 116.529 43.896L116.497 38.952C116.497 38.728 116.449 38.5627 116.353 38.456C116.257 38.3387 116.135 38.264 115.985 38.232C115.847 38.2 115.633 38.168 115.345 38.136C115.249 38.1253 115.201 38.04 115.201 37.88C115.201 37.8053 115.228 37.7573 115.281 37.736C115.431 37.6827 116.3 37.48 117.889 37.128V38.776C118.263 38.296 118.668 37.9013 119.105 37.592C119.553 37.2827 119.991 37.128 120.417 37.128ZM129.59 42.968C129.643 43 129.67 43.0427 129.67 43.096C129.67 43.128 129.654 43.176 129.622 43.24C129.398 43.7627 129.019 44.2267 128.486 44.632C127.963 45.0267 127.302 45.224 126.502 45.224C125.766 45.224 125.094 45.0587 124.486 44.728C123.888 44.3973 123.414 43.9387 123.062 43.352C122.72 42.7547 122.55 42.072 122.55 41.304C122.55 40.632 122.694 39.976 122.982 39.336C123.27 38.6853 123.696 38.1573 124.262 37.752C124.827 37.336 125.504 37.128 126.294 37.128C127.222 37.128 127.99 37.432 128.598 38.04C129.216 38.648 129.579 39.48 129.686 40.536L124.102 40.568C124.091 40.696 124.086 40.8933 124.086 41.16C124.086 42.184 124.336 42.984 124.838 43.56C125.35 44.136 126.006 44.424 126.806 44.424C127.84 44.424 128.672 43.9493 129.302 43C129.344 42.936 129.392 42.904 129.446 42.904C129.478 42.904 129.526 42.9253 129.59 42.968ZM126.198 37.656C125.739 37.656 125.323 37.8533 124.95 38.248C124.576 38.632 124.32 39.208 124.182 39.976L128.006 39.944V39.736C127.984 39.0427 127.803 38.5253 127.462 38.184C127.12 37.832 126.699 37.656 126.198 37.656Z" fill="#FF835A"/>
</svg>
