<svg width="104" height="30" viewBox="0 0 104 30" fill="none" xmlns="http://www.w3.org/2000/svg">
<path d="M24.7584 15.0188C24.7584 21.1526 21.7472 26.543 17.1004 29.8887C24.3866 28.8478 30 22.5653 30 15.0188C30 7.43517 24.3866 1.18982 17.1004 0.148925C21.71 3.45748 24.7584 8.88499 24.7584 15.0188Z" fill="#512729"/>
<path d="M10.4828 29.2936C11.5237 29.6281 12.5646 29.8512 13.6798 29.9255C17.7319 26.208 20.2598 20.8921 20.2598 14.9813C20.2598 9.0705 17.6947 3.75452 13.6798 0.0742185C12.5646 0.185743 11.4865 0.408791 10.4828 0.706189C13.9029 4.46084 15.9847 9.47942 15.9847 15.0185C15.9847 20.5575 13.9029 25.5389 10.4828 29.2936Z" fill="#512729"/>
<path d="M0.000377312 15.0184C0.000377086 20.1857 2.60261 24.7582 6.61748 27.4348C9.92603 24.3121 12.0078 19.8883 12.0078 15.0184C12.0078 10.1113 9.92603 5.68755 6.61748 2.60205C2.60261 5.27863 0.000377539 9.81395 0.000377312 15.0184Z" fill="#512729"/>
<g clip-path="url(#clip0_153_641)">
<path d="M46.4586 10.3922C43.7616 10.3922 42.2178 12.3452 42.2178 15.284C42.2178 18.3158 43.9662 19.9712 46.4772 19.9712C48.8394 19.9712 50.2716 18.6692 50.2716 16.493V16.4372H46.161V14.3354H52.485V21.98H50.4762L50.3274 20.4176C49.5834 21.4592 48.0396 22.1846 46.1982 22.1846C42.3852 22.1846 39.7254 19.4132 39.7254 15.2282C39.7254 11.099 42.4224 8.16018 46.5144 8.16018C49.6206 8.16018 52.02 9.96438 52.4106 12.7358H49.8996C49.4718 11.1362 48.0954 10.3922 46.4586 10.3922ZM60.4872 12.7544V14.8562H59.6502C58.0134 14.8562 56.9904 15.7304 56.9904 17.516V21.98H54.7212V12.8102H56.8602L56.9904 14.1494C57.381 13.238 58.2552 12.6242 59.4828 12.6242C59.799 12.6242 60.1152 12.6614 60.4872 12.7544ZM64.3941 22.2218C62.4411 22.2218 61.2507 21.0872 61.2507 19.3574C61.2507 17.6648 62.4783 16.6046 64.6545 16.4372L67.4073 16.2326V16.028C67.4073 14.7818 66.6633 14.2796 65.5101 14.2796C64.1709 14.2796 63.4269 14.8376 63.4269 15.8048H61.4925C61.4925 13.8146 63.1293 12.5126 65.6217 12.5126C68.0955 12.5126 69.6207 13.8518 69.6207 16.4V21.98H67.6305L67.4631 20.6222C67.0725 21.5708 65.8263 22.2218 64.3941 22.2218ZM65.1381 20.5106C66.5331 20.5106 67.4259 19.6736 67.4259 18.26V17.7764L65.5101 17.9252C64.0965 18.0554 63.5571 18.5204 63.5571 19.2644C63.5571 20.1014 64.1151 20.5106 65.1381 20.5106ZM71.8499 26.2394V12.7916H73.9517L74.1005 14.1866C74.6585 13.1264 75.8675 12.5126 77.2625 12.5126C79.8479 12.5126 81.5591 14.3912 81.5591 17.2742C81.5591 20.1386 79.9967 22.2218 77.2625 22.2218C75.8861 22.2218 74.6957 21.6824 74.1191 20.7524V26.2394H71.8499ZM74.1377 17.3858C74.1377 19.0412 75.1607 20.1758 76.7231 20.1758C78.3227 20.1758 79.2713 19.0226 79.2713 17.3858C79.2713 15.749 78.3227 14.5772 76.7231 14.5772C75.1607 14.5772 74.1377 15.7304 74.1377 17.3858ZM85.6351 21.98H83.3659V8.14158H85.6537V13.982C86.2303 13.0892 87.3091 12.5126 88.6297 12.5126C90.8989 12.5126 92.0893 13.9448 92.0893 16.3256V21.98H89.8201V16.865C89.8201 15.3212 89.0575 14.5772 87.9043 14.5772C86.4721 14.5772 85.6351 15.5816 85.6351 16.958V21.98ZM93.7795 17.3672C93.7795 14.5028 95.8441 12.5312 98.6899 12.5312C101.536 12.5312 103.6 14.5028 103.6 17.3672C103.6 20.2316 101.536 22.2032 98.6899 22.2032C95.8441 22.2032 93.7795 20.2316 93.7795 17.3672ZM96.0487 17.3672C96.0487 19.0412 97.1275 20.1758 98.6899 20.1758C100.252 20.1758 101.331 19.0412 101.331 17.3672C101.331 15.6932 100.252 14.5586 98.6899 14.5586C97.1275 14.5586 96.0487 15.6932 96.0487 17.3672Z" fill="#512729"/>
</g>
<defs>
<clipPath id="clip0_153_641">
<rect width="64.8" height="30" fill="white" transform="translate(39)"/>
</clipPath>
</defs>
</svg>
