<svg width="109" height="31" viewBox="0 0 109 31" fill="none" xmlns="http://www.w3.org/2000/svg">
<path fill-rule="evenodd" clip-rule="evenodd" d="M0.611111 17.9565C0.5 17.9565 0.5 17.9565 0.5 17.9565C1.5 25.0677 7.38889 30.401 14.5 30.8454C14.6111 30.8454 14.7222 30.8454 14.9444 30.8454C15.1667 30.8454 15.3889 30.8454 15.6111 30.8454C15.9444 30.8454 16.2778 30.8454 16.6111 30.8454C23.6111 30.401 29.3889 25.0677 30.5 17.9565C30.3889 17.9565 30.3889 17.9565 30.3889 17.9565C29.2778 17.9565 28.2778 18.0677 27.1667 18.2899C25.9444 23.7343 21.1667 27.6232 15.5 27.6232C9.94444 27.6232 5.05556 23.7343 3.94444 18.1788C2.83333 18.0677 1.72222 17.9565 0.611111 17.9565Z" fill="#512729"/>
<path fill-rule="evenodd" clip-rule="evenodd" d="M15.5 0.623047C15.1667 0.623047 14.8333 0.623047 14.5 0.623047C7.38889 1.1786 1.5 6.51194 0.5 13.623H0.611111C1.72222 13.623 2.72222 13.5119 3.83333 13.2897C5.05556 7.84527 9.83333 3.95638 15.3889 3.95638C20.9444 3.95638 25.8333 7.84527 26.9444 13.2897C27.9444 13.5119 29.0556 13.623 30.1667 13.623H30.2778C29.3889 6.51194 23.6111 1.1786 16.5 0.734158C16.3889 0.734158 16.1667 0.734158 16.0556 0.734158C15.8333 0.623047 15.6111 0.623047 15.5 0.623047Z" fill="#512729"/>
<path fill-rule="evenodd" clip-rule="evenodd" d="M27.8327 15.7344C22.9438 15.0678 18.4993 12.5122 15.4993 8.51221C12.4993 12.5122 8.0549 15.0678 3.16602 15.7344C8.0549 16.4011 12.6105 19.0678 15.4993 23.0678C18.4993 19.0678 22.9438 16.4011 27.8327 15.7344Z" fill="#512729"/>
<g clip-path="url(#clip0_153_649)">
<path d="M42.9576 23.1001V10.5361H45.9276V23.1001H42.9576ZM40.0776 10.5361H48.8076V12.9661H40.0776V10.5361ZM40.0776 20.6701H48.8076V23.1001H40.0776V20.6701ZM56.3026 23.3161C55.2466 23.3161 54.3346 23.1061 53.5666 22.6861C52.8106 22.2661 52.2286 21.6661 51.8206 20.8861C51.4246 20.1061 51.2266 19.1761 51.2266 18.0961C51.2266 16.9921 51.4366 16.0501 51.8566 15.2701C52.2886 14.4901 52.8886 13.8961 53.6566 13.4881C54.4246 13.0801 55.3306 12.8761 56.3746 12.8761C57.2866 12.8761 58.0906 13.0381 58.7866 13.3621C59.4946 13.6861 60.0526 14.1421 60.4606 14.7301C60.8806 15.3061 61.1086 15.9961 61.1446 16.8001H58.3366C58.2406 16.2481 58.0246 15.8401 57.6886 15.5761C57.3646 15.3001 56.9266 15.1621 56.3746 15.1621C55.9186 15.1621 55.5106 15.2761 55.1506 15.5041C54.8026 15.7321 54.5266 16.0621 54.3226 16.4941C54.1306 16.9261 54.0346 17.4601 54.0346 18.0961C54.0346 19.0441 54.2506 19.7761 54.6826 20.2921C55.1266 20.8081 55.6666 21.0661 56.3026 21.0661C56.6746 21.0661 56.9986 21.0001 57.2746 20.8681C57.5626 20.7361 57.8026 20.5501 57.9946 20.3101C58.1866 20.0581 58.3186 19.7761 58.3906 19.4641H61.1986C61.1266 20.2441 60.8746 20.9221 60.4426 21.4981C60.0106 22.0741 59.4406 22.5241 58.7326 22.8481C58.0246 23.1601 57.2146 23.3161 56.3026 23.3161ZM67.8656 23.3161C66.7976 23.3161 65.8796 23.1061 65.1116 22.6861C64.3436 22.2661 63.7496 21.6661 63.3296 20.8861C62.9216 20.1061 62.7176 19.1761 62.7176 18.0961C62.7176 17.0041 62.9216 16.0741 63.3296 15.3061C63.7496 14.5261 64.3436 13.9261 65.1116 13.5061C65.8796 13.0861 66.7976 12.8761 67.8656 12.8761C69.4736 12.8761 70.7276 13.3381 71.6276 14.2621C72.5396 15.1861 72.9956 16.4641 72.9956 18.0961C72.9956 19.1761 72.7916 20.1061 72.3836 20.8861C71.9756 21.6661 71.3876 22.2661 70.6196 22.6861C69.8516 23.1061 68.9336 23.3161 67.8656 23.3161ZM67.8656 21.0481C68.5856 21.0481 69.1496 20.7841 69.5576 20.2561C69.9776 19.7281 70.1876 19.0081 70.1876 18.0961C70.1876 17.1721 69.9776 16.4521 69.5576 15.9361C69.1496 15.4081 68.5856 15.1441 67.8656 15.1441C67.1336 15.1441 66.5576 15.4081 66.1376 15.9361C65.7296 16.4521 65.5256 17.1721 65.5256 18.0961C65.5256 19.0081 65.7296 19.7281 66.1376 20.2561C66.5576 20.7841 67.1336 21.0481 67.8656 21.0481ZM81.5347 23.1001V16.9261C81.5347 16.4101 81.4027 15.9961 81.1387 15.6841C80.8747 15.3721 80.5267 15.2161 80.0947 15.2161C79.6027 15.2161 79.1467 15.3841 78.7267 15.7201C78.3187 16.0441 77.8867 16.6081 77.4307 17.4121L77.0347 15.0361C77.4907 14.2561 78.0427 13.7041 78.6907 13.3801C79.3387 13.0441 79.9987 12.8761 80.6707 12.8761C81.4387 12.8761 82.0927 13.0381 82.6327 13.3621C83.1847 13.6861 83.6047 14.1361 83.8927 14.7121C84.1927 15.2881 84.3427 15.9661 84.3427 16.7461V23.1001H81.5347ZM74.8567 23.1001V13.0921H77.5747L77.6647 14.8741V23.1001H74.8567ZM89.8757 23.1001V13.0921H92.6837V23.1001H89.8757ZM86.6357 23.1001V20.8321H95.9597V23.1001H86.6357ZM87.8957 15.3601V13.0921H91.2797V15.3601H87.8957ZM89.7677 11.7601V9.1321H92.7557V11.7601H89.7677ZM103.131 23.3161C102.075 23.3161 101.163 23.1061 100.395 22.6861C99.6387 22.2661 99.0567 21.6661 98.6487 20.8861C98.2527 20.1061 98.0547 19.1761 98.0547 18.0961C98.0547 16.9921 98.2647 16.0501 98.6847 15.2701C99.1167 14.4901 99.7167 13.8961 100.485 13.4881C101.253 13.0801 102.159 12.8761 103.203 12.8761C104.115 12.8761 104.919 13.0381 105.615 13.3621C106.323 13.6861 106.881 14.1421 107.289 14.7301C107.709 15.3061 107.937 15.9961 107.973 16.8001H105.165C105.069 16.2481 104.853 15.8401 104.517 15.5761C104.193 15.3001 103.755 15.1621 103.203 15.1621C102.747 15.1621 102.339 15.2761 101.979 15.5041C101.631 15.7321 101.355 16.0621 101.151 16.4941C100.959 16.9261 100.863 17.4601 100.863 18.0961C100.863 19.0441 101.079 19.7761 101.511 20.2921C101.955 20.8081 102.495 21.0661 103.131 21.0661C103.503 21.0661 103.827 21.0001 104.103 20.8681C104.391 20.7361 104.631 20.5501 104.823 20.3101C105.015 20.0581 105.147 19.7761 105.219 19.4641H108.027C107.955 20.2441 107.703 20.9221 107.271 21.4981C106.839 22.0741 106.269 22.5241 105.561 22.8481C104.853 23.1601 104.043 23.3161 103.131 23.3161Z" fill="#512729"/>
</g>
<defs>
<clipPath id="clip0_153_649">
<rect width="68.4" height="30" fill="white" transform="translate(39.8008 1)"/>
</clipPath>
</defs>
</svg>
