<svg width="71" height="70" viewBox="0 0 71 70" fill="none" xmlns="http://www.w3.org/2000/svg">
<path d="M28.209 35H35.5007H42.7923V53.9583C42.7923 55.1584 42.7923 55.7584 42.7068 56.2596C42.2783 58.7697 40.312 60.7359 37.802 61.1644C37.3008 61.25 36.7007 61.25 35.5007 61.25V61.25C34.3006 61.25 33.7005 61.25 33.1993 61.1644C30.6893 60.7359 28.723 58.7697 28.2945 56.2596C28.209 55.7584 28.209 55.1584 28.209 53.9583V35Z" fill="#FCF3EE"/>
<path d="M28.2077 35H42.791M28.2077 35V53.9583C28.2077 55.1584 28.2077 55.7585 28.2932 56.2596C28.7217 58.7697 30.688 60.7359 33.198 61.1644C33.6992 61.25 34.2993 61.25 35.4993 61.25V61.25C36.6994 61.25 37.2995 61.25 37.8007 61.1644C40.3107 60.7359 42.277 58.7697 42.7055 56.2596C42.791 55.7585 42.791 55.1584 42.791 53.9583V35M28.2077 35V17.5292M42.791 35V17.5292M29.666 17.5H41.3327C43.7489 17.5 45.7077 15.5412 45.7077 13.125V13.125C45.7077 10.7088 43.7489 8.75 41.3327 8.75H29.666C27.2498 8.75 25.291 10.7088 25.291 13.125V13.125C25.291 15.5412 27.2498 17.5 29.666 17.5Z" stroke="#512729" stroke-width="1.5" stroke-linejoin="round"/>
</svg>
