<svg width="41" height="42" viewBox="0 0 41 42" fill="none" xmlns="http://www.w3.org/2000/svg">
<path fill-rule="evenodd" clip-rule="evenodd" d="M23 0.6875H18C10.5786 0.6875 6.86798 0.6875 4.26671 2.57744C3.4266 3.18781 2.68781 3.9266 2.07744 4.76671C0.1875 7.36798 0.1875 11.0786 0.1875 18.5V23.5C0.1875 30.9212 0.1875 34.6321 2.07744 37.2333C2.68781 38.0733 3.4266 38.8123 4.26671 39.4225C6.86798 41.3125 10.5786 41.3125 18 41.3125H23C30.4212 41.3125 34.1321 41.3125 36.7333 39.4225C37.5733 38.8123 38.3123 38.0733 38.9225 37.2333C40.8125 34.6321 40.8125 30.9212 40.8125 23.5V18.5C40.8125 11.0786 40.8125 7.36798 38.9225 4.76671C38.3123 3.9266 37.5733 3.18781 36.7333 2.57744C34.1321 0.6875 30.4212 0.6875 23 0.6875ZM28.8333 21C28.8333 25.6023 25.1023 29.3333 20.5 29.3333C15.8976 29.3333 12.1667 25.6023 12.1667 21C12.1667 16.3976 15.8976 12.6667 20.5 12.6667C25.1023 12.6667 28.8333 16.3976 28.8333 21ZM31.9583 11.625C33.109 11.625 34.0417 10.6922 34.0417 9.54167C34.0417 8.39108 33.109 7.45833 31.9583 7.45833C30.8077 7.45833 29.875 8.39108 29.875 9.54167C29.875 10.6922 30.8077 11.625 31.9583 11.625Z" fill="#FCF3EE"/>
</svg>
