<svg width="24" height="29" viewBox="0 0 24 29" fill="none" xmlns="http://www.w3.org/2000/svg">
<g opacity="0.9">
<path d="M12.1534 7C7.18288 7 3.15329 11 4.15344 16C4.81873 19.3259 8.13865 22.4306 10.2872 24.1367C10.9894 24.6944 11.3406 24.9732 11.8858 25.0468C12.0369 25.0672 12.2699 25.0672 12.4211 25.0468C12.9663 24.9732 13.3174 24.6944 14.0197 24.1368C16.1683 22.4306 19.4883 19.3259 20.1534 16C21.1533 11 17.124 7 12.1534 7Z" stroke="#FCF3EE" stroke-width="1.5" stroke-linejoin="round"/>
<path d="M15 13.0371C15 14.9744 13.6569 16.5448 12 16.5448C10.3431 16.5448 9 14.9744 9 13.0371C9 11.0998 10.3431 9.5293 12 9.5293C13.6569 9.5293 15 11.0998 15 13.0371Z" stroke="#FCF3EE" stroke-width="1.5" stroke-linejoin="round"/>
</g>
</svg>
