<svg width="142" height="30" viewBox="0 0 142 30" fill="none" xmlns="http://www.w3.org/2000/svg">
<path fill-rule="evenodd" clip-rule="evenodd" d="M9.08716 18.75V11.25V3.75L2.59961 7.5V15V22.5L9.08716 26.25L15.5644 30L22.052 26.25L15.5644 22.5L9.08716 18.75Z" fill="#512729"/>
<path fill-rule="evenodd" clip-rule="evenodd" d="M15.5645 7.5V15L22.052 18.75L28.5293 22.5V15L22.052 11.25V3.75L15.5645 0V7.5Z" fill="#512729"/>
<g clip-path="url(#clip0_153_662)">
<path d="M42.6732 19.59H56.0832V21.48H40.4772V9.20398H42.6732V19.59ZM57.3614 16.962C57.3614 13.686 59.8094 12.228 65.0474 12.228C70.3034 12.228 72.7334 13.686 72.7334 16.962C72.7334 20.238 70.3034 21.696 65.0474 21.696C59.8094 21.696 57.3614 20.238 57.3614 16.962ZM59.4134 16.962C59.4134 19.086 60.8534 19.932 65.0474 19.932C69.2414 19.932 70.6814 19.086 70.6814 16.962C70.6814 14.856 69.2414 13.992 65.0474 13.992C60.8534 13.992 59.4134 14.856 59.4134 16.962ZM88.6463 12.912V20.076C88.6463 23.64 86.4323 24.954 81.2843 24.954C79.3583 24.954 76.8203 24.666 74.9663 24.126L75.4343 22.524C77.1983 22.992 79.2323 23.316 81.3923 23.316C85.4603 23.316 86.7383 22.38 86.6663 20.094L86.6303 19.662C84.7583 20.436 82.4903 21.03 80.1323 21.03C76.4603 21.03 74.5703 19.752 74.5703 16.71C74.5703 13.38 77.2703 12.282 81.4103 12.282C84.2003 12.282 86.7563 12.606 88.6463 12.912ZM76.6223 16.692C76.6223 18.618 77.7383 19.41 80.2943 19.41C82.3643 19.41 84.5063 18.978 86.5763 18.276V14.352C84.9743 14.136 82.9043 13.974 81.1403 13.974C78.3143 13.974 76.6223 14.676 76.6223 16.692ZM93.0839 8.73598V11.166H91.0319V8.73598H93.0839ZM91.0319 21.48V12.462H93.0839V21.48H91.0319ZM109.281 12.912V24.72H107.229V20.004C105.321 20.886 103.017 21.66 100.623 21.66C97.2034 21.66 95.2774 20.292 95.2774 17.052C95.2774 13.452 97.9594 12.282 101.991 12.282C104.781 12.282 107.391 12.588 109.281 12.912ZM97.3294 16.962C97.3294 19.086 98.4454 19.932 101.001 19.932C103.071 19.932 105.159 19.338 107.229 18.564V14.352C105.627 14.136 103.539 13.974 101.775 13.974C98.9494 13.974 97.3294 14.766 97.3294 16.962ZM111.507 17.376V12.462H113.559V17.106C113.559 18.924 114.675 19.95 117.411 19.95C118.923 19.95 120.993 19.518 123.207 18.78V12.462H125.259V21.48H123.477L123.297 20.184C121.371 20.994 119.049 21.696 116.763 21.696C113.451 21.696 111.507 20.472 111.507 17.376ZM134.881 20.04C137.509 20.04 139.723 19.644 140.641 19.446L141.073 20.994C139.543 21.39 137.023 21.696 134.719 21.696C129.787 21.696 127.375 20.454 127.375 16.962C127.375 13.542 129.985 12.246 134.431 12.246C138.517 12.246 141.397 13.29 141.397 16.494C141.397 16.8 141.361 17.304 141.325 17.502H129.391C129.643 19.554 131.317 20.04 134.881 20.04ZM134.359 13.704C131.155 13.704 129.607 14.352 129.391 16.332H139.381C139.219 14.55 138.049 13.704 134.359 13.704Z" fill="#512729"/>
</g>
<defs>
<clipPath id="clip0_153_662">
<rect width="102.6" height="30" fill="white" transform="translate(39.1992)"/>
</clipPath>
</defs>
</svg>
