<svg width="116" height="30" viewBox="0 0 116 30" fill="none" xmlns="http://www.w3.org/2000/svg">
<path fill-rule="evenodd" clip-rule="evenodd" d="M22.4081 30L30.4004 0L0.400391 7.99228L7.11875 14.7107L24.0299 6.3709L15.5743 23.1663L22.4081 30Z" fill="#512729"/>
<path opacity="0.5" fill-rule="evenodd" clip-rule="evenodd" d="M24.0303 6.37109L15.5747 23.1665H7.11914V14.7109L24.0303 6.37109Z" fill="#512729"/>
<g clip-path="url(#clip0_153_718)">
<path d="M46.1928 22.2104C45.2584 22.2104 44.388 22.044 43.5816 21.7112C42.788 21.3656 42.0904 20.892 41.4888 20.2904C40.8872 19.6888 40.4136 18.9848 40.068 18.1784C39.7352 17.3592 39.5688 16.476 39.5688 15.5288C39.5688 14.5944 39.7352 13.7304 40.068 12.9368C40.4136 12.1304 40.8872 11.4264 41.4888 10.8248C42.0904 10.2232 42.788 9.75598 43.5816 9.42318C44.388 9.07758 45.2584 8.90478 46.1928 8.90478C47.1272 8.90478 47.9912 9.07758 48.7848 9.42318C49.5784 9.75598 50.276 10.2232 50.8776 10.8248C51.4792 11.4264 51.9464 12.1304 52.2792 12.9368C52.612 13.7304 52.7784 14.5944 52.7784 15.5288C52.7784 16.476 52.612 17.3592 52.2792 18.1784C51.9464 18.9848 51.4792 19.6888 50.8776 20.2904C50.276 20.892 49.5784 21.3656 48.7848 21.7112C47.9912 22.044 47.1272 22.2104 46.1928 22.2104ZM46.1928 20.348C46.82 20.348 47.4088 20.2264 47.9592 19.9832C48.5224 19.7272 49.0152 19.3816 49.4376 18.9464C49.86 18.5112 50.1864 18.0056 50.4168 17.4296C50.6472 16.8408 50.7624 16.2072 50.7624 15.5288C50.7624 14.8632 50.6472 14.2424 50.4168 13.6664C50.1864 13.0904 49.86 12.5848 49.4376 12.1496C49.0152 11.7144 48.5288 11.3752 47.9784 11.132C47.428 10.8888 46.8328 10.7672 46.1928 10.7672C45.5528 10.7672 44.9512 10.8888 44.388 11.132C43.8248 11.3752 43.332 11.7144 42.9096 12.1496C42.5 12.5848 42.1736 13.0904 41.9304 13.6664C41.7 14.2424 41.5848 14.8632 41.5848 15.5288C41.5848 16.2072 41.7 16.8408 41.9304 17.4296C42.1736 18.0056 42.5 18.5112 42.9096 18.9464C43.332 19.3816 43.8248 19.7272 44.388 19.9832C44.9512 20.2264 45.5528 20.348 46.1928 20.348ZM56.821 26.3H54.9202V17.2568C54.9202 16.3224 55.1378 15.484 55.573 14.7416C56.021 13.9992 56.6226 13.4168 57.3778 12.9944C58.133 12.5592 58.9842 12.3416 59.9314 12.3416C60.8786 12.3416 61.7298 12.5656 62.485 13.0136C63.2402 13.4488 63.8354 14.044 64.2706 14.7992C64.7058 15.5416 64.9234 16.3608 64.9234 17.2568C64.9234 18.204 64.7122 19.0552 64.2898 19.8104C63.8674 20.5528 63.285 21.1416 62.5426 21.5768C61.813 21.9992 60.9682 22.2104 60.0082 22.2104C59.253 22.2104 58.5554 22.0312 57.9154 21.6728C57.2882 21.3144 56.7826 20.8472 56.3986 20.2712C56.0274 19.6824 55.8418 19.0424 55.8418 18.3512L56.821 18.8504V26.3ZM59.9314 20.4248C60.5202 20.4248 61.045 20.284 61.5058 20.0024C61.9794 19.708 62.3506 19.324 62.6194 18.8504C62.8882 18.364 63.0226 17.8392 63.0226 17.276C63.0226 16.7 62.8882 16.1752 62.6194 15.7016C62.3506 15.228 61.9794 14.8504 61.5058 14.5688C61.045 14.2872 60.5202 14.1464 59.9314 14.1464C59.3426 14.1464 58.8114 14.2872 58.3378 14.5688C57.877 14.8504 57.5058 15.228 57.2242 15.7016C56.9554 16.1752 56.821 16.7 56.821 17.276C56.821 17.8392 56.9554 18.364 57.2242 18.8504C57.5058 19.324 57.877 19.708 58.3378 20.0024C58.8114 20.284 59.3426 20.4248 59.9314 20.4248ZM71.3518 22.2296C70.5838 22.2296 69.931 22.076 69.3934 21.7688C68.8558 21.4616 68.4462 21.0392 68.1646 20.5016C67.8958 19.9512 67.7614 19.3176 67.7614 18.6008V10.1336H69.6622V18.5432C69.6622 19.1576 69.8286 19.6376 70.1614 19.9832C70.507 20.3288 70.9614 20.5016 71.5246 20.5016C71.8318 20.5016 72.139 20.4504 72.4462 20.348C72.7662 20.2456 73.0414 20.1112 73.2718 19.9448V21.692C73.0286 21.8456 72.7342 21.9736 72.3886 22.076C72.043 22.1784 71.6974 22.2296 71.3518 22.2296ZM73.2718 14.2232H65.899V12.572H73.2718V14.2232ZM76.098 12.572H77.9988V21.98H76.098V12.572ZM77.0388 10.7096C76.8212 10.7096 76.6164 10.6584 76.4244 10.556C76.2324 10.4408 76.0788 10.2872 75.9636 10.0952C75.8484 9.90318 75.7908 9.69198 75.7908 9.46158C75.7908 9.23118 75.8484 9.01998 75.9636 8.82798C76.0788 8.63598 76.2324 8.48238 76.4244 8.36718C76.6164 8.25198 76.8212 8.19438 77.0388 8.19438C77.2692 8.19438 77.474 8.25198 77.6532 8.36718C77.8452 8.48238 77.9924 8.63598 78.0948 8.82798C78.21 9.01998 78.2676 9.23118 78.2676 9.46158C78.2676 9.69198 78.21 9.90318 78.0948 10.0952C77.9924 10.2872 77.8452 10.4408 77.6532 10.556C77.474 10.6584 77.2692 10.7096 77.0388 10.7096ZM92.7688 12.3032C93.716 12.3032 94.5096 12.5144 95.1496 12.9368C95.8024 13.3592 96.2952 13.9288 96.628 14.6456C96.9736 15.3624 97.1464 16.156 97.1464 17.0264V21.98H95.2456V17.3336C95.2456 16.7576 95.1496 16.2264 94.9576 15.74C94.7784 15.2536 94.4904 14.8632 94.0936 14.5688C93.7096 14.2744 93.2232 14.1272 92.6344 14.1272C92.0712 14.1272 91.5976 14.2744 91.2136 14.5688C90.8296 14.8504 90.5416 15.2344 90.3496 15.7208C90.1576 16.1944 90.0616 16.7192 90.0616 17.2952V21.98H88.1608V17.2952C88.1608 16.7192 88.0648 16.1944 87.8728 15.7208C87.6936 15.2344 87.4056 14.8504 87.0088 14.5688C86.6248 14.2744 86.1384 14.1272 85.5496 14.1272C84.9608 14.1272 84.4744 14.2744 84.0904 14.5688C83.7192 14.8632 83.444 15.2536 83.2648 15.74C83.0856 16.2264 82.996 16.7576 82.996 17.3336V21.98H81.0952V17.0456C81.0952 16.1624 81.2552 15.3624 81.5752 14.6456C81.908 13.9288 82.3944 13.3592 83.0344 12.9368C83.6872 12.5144 84.4808 12.3032 85.4152 12.3032C86.2088 12.3032 86.8936 12.4568 87.4696 12.764C88.0584 13.0712 88.5128 13.4936 88.8328 14.0312C89.1656 14.5688 89.3384 15.1896 89.3512 15.8936H88.9288C88.9544 15.1896 89.1272 14.5688 89.4472 14.0312C89.78 13.4936 90.228 13.0712 90.7912 12.764C91.3672 12.4568 92.0264 12.3032 92.7688 12.3032ZM103.992 22.2104C103.083 22.2104 102.27 21.9864 101.554 21.5384C100.85 21.0904 100.293 20.4952 99.8832 19.7528C99.4736 18.9976 99.2688 18.1656 99.2688 17.2568C99.2688 16.3608 99.4864 15.5416 99.9216 14.7992C100.37 14.044 100.971 13.4488 101.726 13.0136C102.482 12.5656 103.333 12.3416 104.28 12.3416C105.227 12.3416 106.078 12.5592 106.834 12.9944C107.589 13.4168 108.184 13.9992 108.619 14.7416C109.067 15.484 109.291 16.3224 109.291 17.2568V21.98H107.486V18.4664L108.139 17.9672C108.139 18.7608 107.96 19.4776 107.602 20.1176C107.256 20.7576 106.77 21.2696 106.142 21.6536C105.528 22.0248 104.811 22.2104 103.992 22.2104ZM104.28 20.4056C104.869 20.4056 105.4 20.2648 105.874 19.9832C106.347 19.7016 106.718 19.324 106.987 18.8504C107.256 18.364 107.39 17.8392 107.39 17.276C107.39 16.7 107.256 16.1752 106.987 15.7016C106.718 15.228 106.347 14.8504 105.874 14.5688C105.4 14.2744 104.869 14.1272 104.28 14.1272C103.691 14.1272 103.16 14.2744 102.686 14.5688C102.226 14.8504 101.854 15.228 101.573 15.7016C101.304 16.1752 101.17 16.7 101.17 17.276C101.17 17.8392 101.304 18.364 101.573 18.8504C101.854 19.324 102.226 19.7016 102.686 19.9832C103.16 20.2648 103.691 20.4056 104.28 20.4056ZM112.398 8.25198H114.299V21.98H112.398V8.25198Z" fill="#512729"/>
</g>
<defs>
<clipPath id="clip0_153_718">
<rect width="76.2" height="30" fill="white" transform="translate(39.4004)"/>
</clipPath>
</defs>
</svg>
