<svg width="20" height="20" viewBox="0 0 20 20" fill="none" xmlns="http://www.w3.org/2000/svg">
<path d="M2.02513 2.07158L1.4949 1.54115L2.02513 2.07158ZM6.97487 7.0194L7.5051 7.54983L6.97487 7.0194ZM12.9853 13.0275L13.5155 13.5579L12.9853 13.0275ZM17.935 17.9753L17.4048 17.4448L17.935 17.9753ZM5.56066 14.4411L5.03043 14.9716L5.56066 14.4411ZM1.01853 4.90614L1.76852 4.90188C1.76838 4.87762 1.76707 4.85338 1.76458 4.82924L1.01853 4.90614ZM15.0994 18.9815L15.1762 18.2354C15.1521 18.2329 15.1279 18.2316 15.1036 18.2315L15.0994 18.9815ZM5.05559 8.00002L4.9372 7.25942C4.69728 7.29778 4.49081 7.44997 4.38319 7.6678C4.27556 7.88563 4.28013 8.1421 4.39544 8.35596L5.05559 8.00002ZM12.0043 14.946L11.6486 15.6063C11.8624 15.7215 12.1188 15.726 12.3366 15.6184C12.5543 15.5107 12.7065 15.3043 12.7449 15.0645L12.0043 14.946ZM10.5256 0.250143C10.1114 0.242065 9.76915 0.571239 9.76107 0.985374C9.75299 1.39951 10.0822 1.74178 10.4963 1.74986L10.5256 0.250143ZM16.5213 3.47391L15.9911 4.00434L16.5213 3.47391ZM18.2463 9.4966C18.2544 9.91074 18.5967 10.2399 19.0108 10.2318C19.425 10.2237 19.7541 9.88146 19.7461 9.46733L18.2463 9.4966ZM14.4044 5.59921L13.8742 6.12964L14.4044 5.59921ZM15.1077 9.12895C15.1298 9.54257 15.4831 9.85993 15.8967 9.83779C16.3103 9.81565 16.6277 9.46239 16.6055 9.04877L15.1077 9.12895ZM10.9397 3.39793C10.526 3.37656 10.1733 3.69456 10.152 4.10823C10.1306 4.52189 10.4486 4.87456 10.8623 4.89593L10.9397 3.39793ZM10.6456 6.44124C10.2321 6.4666 9.91752 6.82232 9.94289 7.23576C9.96825 7.64919 10.324 7.96379 10.7374 7.93843L10.6456 6.44124ZM12.0642 9.26437C12.0388 9.6778 12.3534 10.0335 12.7668 10.0589C13.1803 10.0843 13.536 9.76972 13.5614 9.35628L12.0642 9.26437ZM2.55535 2.60202C3.62932 1.52847 5.37068 1.52847 6.44465 2.60202L7.5051 1.54115C5.8454 -0.117908 3.1546 -0.117908 1.4949 1.54115L2.55535 2.60202ZM6.44465 2.60202C7.51845 3.6754 7.51845 5.41558 6.44465 6.48896L7.5051 7.54983C9.16497 5.89061 9.16497 3.20037 7.5051 1.54115L6.44465 2.60202ZM13.5155 13.5579C14.5895 12.4843 16.3308 12.4843 17.4048 13.5579L18.4653 12.497C16.8055 10.838 14.1148 10.838 12.4551 12.497L13.5155 13.5579ZM17.4048 13.5579C18.4786 14.6313 18.4786 16.3715 17.4048 17.4448L18.4653 18.5057C20.1251 16.8465 20.1251 14.1562 18.4653 12.497L17.4048 13.5579ZM6.09089 13.9107C3.26504 11.0859 1.78435 7.69146 1.76852 4.90188L0.268544 4.91039C0.287109 8.18129 1.99291 11.9352 5.03043 14.9716L6.09089 13.9107ZM1.76458 4.82924C1.6825 4.03284 1.94644 3.21069 2.55535 2.60202L1.4949 1.54115C0.553198 2.48248 0.14608 3.7566 0.272484 4.98303L1.76458 4.82924ZM17.4048 17.4448C16.7959 18.0535 15.9732 18.3175 15.1762 18.2354L15.0225 19.7275C16.2491 19.8539 17.5236 19.447 18.4653 18.5057L17.4048 17.4448ZM15.1036 18.2315C12.3127 18.2157 8.91671 16.7354 6.09089 13.9107L5.03043 14.9716C8.06797 18.0079 11.8232 19.7129 15.0951 19.7315L15.1036 18.2315ZM6.44465 6.48896C6.01844 6.91501 5.48913 7.17119 4.9372 7.25942L5.17398 8.74062C6.02737 8.6042 6.84804 8.20663 7.5051 7.54983L6.44465 6.48896ZM8.56576 11.4368C7.37781 10.2493 6.42284 8.95551 5.71575 7.64408L4.39544 8.35596C5.17383 9.79964 6.21742 11.2103 7.50531 12.4976L8.56576 11.4368ZM12.7449 15.0645C12.8331 14.5129 13.0893 13.9839 13.5155 13.5579L12.4551 12.497C11.798 13.1538 11.4002 13.9743 11.2637 14.8275L12.7449 15.0645ZM12.36 14.2857C11.048 13.5789 9.75371 12.6243 8.56576 11.4368L7.50531 12.4976C8.79319 13.785 10.2044 14.8282 11.6486 15.6063L12.36 14.2857ZM10.4963 1.74986C12.5739 1.79038 14.5268 2.54059 15.9911 4.00434L17.0516 2.94347C15.2848 1.17745 12.9488 0.297409 10.5256 0.250143L10.4963 1.74986ZM15.9911 4.00434C17.4554 5.46807 18.2058 7.42003 18.2463 9.4966L19.7461 9.46733C19.6988 7.04477 18.8183 4.70952 17.0516 2.94347L15.9911 4.00434ZM13.8742 6.12964C14.6261 6.88123 15.0426 7.91298 15.1077 9.12895L16.6055 9.04877C16.5244 7.53274 15.9938 6.1275 14.9346 5.06877L13.8742 6.12964ZM10.8623 4.89593C12.0837 4.95906 13.12 5.37578 13.8742 6.12964L14.9346 5.06877C13.8723 4.00683 12.4613 3.47657 10.9397 3.39793L10.8623 4.89593ZM10.7374 7.93843C11.2053 7.90972 11.5406 8.03887 11.7522 8.25039L12.8127 7.18952C12.2267 6.60376 11.4316 6.39302 10.6456 6.44124L10.7374 7.93843ZM11.7522 8.25039C11.9638 8.46186 12.0929 8.79691 12.0642 9.26437L13.5614 9.35628C13.6096 8.57033 13.3987 7.77534 12.8127 7.18952L11.7522 8.25039Z" fill="#512729"/>
</svg>
