<svg width="20" height="20" viewBox="0 0 20 20" fill="none" xmlns="http://www.w3.org/2000/svg">
<path d="M2.02513 2.07157L1.4949 1.54114H1.4949L2.02513 2.07157ZM6.97487 2.07157L7.5051 1.54114L6.97487 2.07157ZM6.97487 7.01939L6.44465 6.48895L6.97487 7.01939ZM12.9853 13.0274L12.4551 12.497L12.9853 13.0274ZM17.935 17.9753L17.4048 17.4448L17.935 17.9753ZM5.56066 14.4411L5.03043 14.9715L5.56066 14.4411ZM1.01853 4.90613L1.76852 4.90187C1.76838 4.87761 1.76707 4.85337 1.76458 4.82923L1.01853 4.90613ZM15.0994 18.9815L15.1762 18.2354C15.1521 18.2329 15.1279 18.2316 15.1036 18.2315L15.0994 18.9815ZM5.05559 8.00001L4.9372 7.25941C4.69728 7.29776 4.49081 7.44996 4.38319 7.66779C4.27556 7.88562 4.28013 8.14209 4.39544 8.35595L5.05559 8.00001ZM12.0043 14.946L11.6486 15.6063C11.8624 15.7215 12.1188 15.726 12.3366 15.6184C12.5543 15.5107 12.7065 15.3043 12.7449 15.0645L12.0043 14.946ZM2.55535 2.602C3.62932 1.52846 5.37068 1.52846 6.44465 2.602L7.5051 1.54114C5.8454 -0.11792 3.1546 -0.11792 1.4949 1.54114L2.55535 2.602ZM6.44465 2.602C7.51845 3.67539 7.51845 5.41557 6.44465 6.48895L7.5051 7.54982C9.16497 5.8906 9.16497 3.20036 7.5051 1.54114L6.44465 2.602ZM13.5155 13.5579C14.5895 12.4843 16.3308 12.4843 17.4048 13.5579L18.4653 12.497C16.8055 10.838 14.1148 10.838 12.4551 12.497L13.5155 13.5579ZM17.4048 13.5579C18.4786 14.6313 18.4786 16.3714 17.4048 17.4448L18.4653 18.5057C20.1251 16.8465 20.1251 14.1562 18.4653 12.497L17.4048 13.5579ZM6.09089 13.9107C3.26504 11.0859 1.78435 7.69145 1.76852 4.90187L0.268544 4.91038C0.287109 8.18128 1.99291 11.9352 5.03043 14.9715L6.09089 13.9107ZM1.76458 4.82923C1.6825 4.03283 1.94644 3.21068 2.55535 2.602L1.4949 1.54114C0.553198 2.48247 0.14608 3.75659 0.272484 4.98302L1.76458 4.82923ZM17.4048 17.4448C16.7959 18.0535 15.9732 18.3175 15.1762 18.2354L15.0225 19.7275C16.2491 19.8538 17.5236 19.447 18.4653 18.5057L17.4048 17.4448ZM15.1036 18.2315C12.3127 18.2156 8.91671 16.7354 6.09089 13.9107L5.03043 14.9715C8.06797 18.0079 11.8232 19.7129 15.0951 19.7315L15.1036 18.2315ZM6.44465 6.48895C6.01844 6.91499 5.48913 7.17118 4.9372 7.25941L5.17398 8.7406C6.02737 8.60418 6.84804 8.20662 7.5051 7.54982L6.44465 6.48895ZM8.56576 11.4368C7.37781 10.2493 6.42284 8.9555 5.71575 7.64407L4.39544 8.35595C5.17383 9.79963 6.21742 11.2102 7.50531 12.4976L8.56576 11.4368ZM12.7449 15.0645C12.8331 14.5129 13.0893 13.9839 13.5155 13.5579L12.4551 12.497C11.798 13.1538 11.4002 13.9743 11.2637 14.8275L12.7449 15.0645ZM12.36 14.2857C11.048 13.5789 9.75371 12.6243 8.56576 11.4368L7.50531 12.4976C8.79319 13.785 10.2044 14.8282 11.6486 15.6063L12.36 14.2857Z" fill="#512729"/>
</svg>
