<svg width="20" height="21" viewBox="0 0 20 21" fill="none" xmlns="http://www.w3.org/2000/svg">
<path d="M1.01851 5.40616L1.7685 5.4019C1.76836 5.37764 1.76705 5.3534 1.76456 5.32926L1.01851 5.40616ZM15.0994 19.4815L15.1762 18.7354C15.1521 18.733 15.1279 18.7316 15.1036 18.7315L15.0994 19.4815ZM5.05557 8.5L4.93718 7.75944C4.69726 7.79779 4.49079 7.94999 4.38317 8.16782C4.27554 8.38565 4.28011 8.6421 4.39542 8.856L5.05557 8.5ZM12.0043 15.446L11.6486 16.1063C11.8624 16.2215 12.1188 16.226 12.3366 16.1184C12.5543 16.0108 12.7065 15.8043 12.7449 15.5645L12.0043 15.446ZM2.55533 3.10203C3.6293 2.02849 5.37066 2.02849 6.44463 3.10203L7.50508 2.04117C5.84538 0.38211 3.15458 0.38211 1.49488 2.04117L2.55533 3.10203ZM6.44463 3.10203C7.51843 4.17542 7.51843 5.9156 6.44463 6.98898L7.50508 8.04985C9.16498 6.39063 9.16498 3.70039 7.50508 2.04117L6.44463 3.10203ZM13.5155 14.0579C14.5895 12.9844 16.3308 12.9844 17.4048 14.0579L18.4653 12.997C16.8055 11.338 14.1148 11.338 12.4551 12.997L13.5155 14.0579ZM17.4048 14.0579C18.4786 15.1313 18.4786 16.8715 17.4048 17.9449L18.4653 19.0057C20.1251 17.3465 20.1251 14.6563 18.4653 12.997L17.4048 14.0579ZM6.09087 14.4107C3.26502 11.586 1.78433 8.19148 1.7685 5.4019L0.268518 5.41041C0.287088 8.6813 1.99289 12.4352 5.03041 15.4716L6.09087 14.4107ZM1.76456 5.32926C1.68248 4.53286 1.94642 3.71071 2.55533 3.10203L1.49488 2.04117C0.553178 2.9825 0.146058 4.25662 0.272458 5.48305L1.76456 5.32926ZM17.4048 17.9449C16.7959 18.5536 15.9732 18.8175 15.1762 18.7354L15.0225 20.2275C16.2491 20.3539 17.5236 19.947 18.4653 19.0057L17.4048 17.9449ZM15.1036 18.7315C12.3127 18.7157 8.91668 17.2354 6.09087 14.4107L5.03041 15.4716C8.06798 18.5079 11.8232 20.2129 15.0951 20.2315L15.1036 18.7315ZM6.44463 6.98898C6.01842 7.41502 5.48911 7.67121 4.93718 7.75944L5.17396 9.2406C6.02735 9.1042 6.84802 8.7067 7.50508 8.04985L6.44463 6.98898ZM8.56578 11.9368C7.37779 10.7493 6.42282 9.4555 5.71573 8.1441L4.39542 8.856C5.17381 10.2997 6.2174 11.7103 7.50529 12.9977L8.56578 11.9368ZM12.7449 15.5645C12.8331 15.013 13.0893 14.4839 13.5155 14.0579L12.4551 12.997C11.798 13.6539 11.4002 14.4743 11.2637 15.3275L12.7449 15.5645ZM12.36 14.7857C11.048 14.0789 9.75368 13.1243 8.56578 11.9368L7.50529 12.9977C8.79318 14.285 10.2044 15.3282 11.6486 16.1063L12.36 14.7857Z" fill="#FCF3EE"/>
</svg>
