<svg width="61" height="65" viewBox="0 0 61 65" fill="none" xmlns="http://www.w3.org/2000/svg">
<path d="M2.16602 37.4128C14.547 34.3176 20.7374 28.1271 23.8327 15.7462C26.9279 28.1271 33.1184 34.3176 45.4994 37.4128C33.1184 40.5081 26.9279 46.6986 23.8327 59.0795C20.7374 46.6986 14.547 40.5081 2.16602 37.4128Z" stroke="#512729" stroke-width="3.5" stroke-linejoin="round"/>
<path d="M35.4994 14.0795C42.166 12.4128 45.4994 9.07951 47.166 2.41284C48.8327 9.07951 52.166 12.4128 58.8327 14.0795C52.166 15.7462 48.8327 19.0795 47.166 25.7462C45.4994 19.0795 42.166 15.7462 35.4994 14.0795Z" stroke="#512729" stroke-width="3.5" stroke-linejoin="round"/>
<path d="M37.166 56.5795C40.4994 55.7462 42.166 54.0795 42.9994 50.7462C43.8327 54.0795 45.4994 55.7462 48.8327 56.5795C45.4994 57.4128 43.8327 59.0795 42.9994 62.4128C42.166 59.0795 40.4994 57.4128 37.166 56.5795Z" stroke="#512729" stroke-width="3.5" stroke-linejoin="round"/>
</svg>
