<svg width="71" height="70" viewBox="0 0 71 70" fill="none" xmlns="http://www.w3.org/2000/svg">
<path d="M13.678 45.4742L32.9679 26.1845L28.1379 21.3545L28.1379 21.3545C27.1784 20.3951 26.6987 19.9154 26.4711 19.3831C26.1489 18.6297 26.1488 17.7773 26.471 17.0238C26.6987 16.4915 27.1784 16.0118 28.1378 15.0523C29.0972 14.0929 29.577 13.6131 30.1093 13.3855C30.8627 13.0632 31.7151 13.0632 32.4686 13.3854C33.0009 13.6131 33.4806 14.0928 34.4401 15.0522L41.7927 22.4048L52.2966 11.9011C53.2561 10.9416 53.7358 10.4619 54.2681 10.2343C55.0215 9.91206 55.8739 9.91206 56.6273 10.2343C57.1596 10.4619 57.6394 10.9416 58.5988 11.9011C59.5583 12.8605 60.038 13.3403 60.2657 13.8726C60.5879 14.626 60.5879 15.4784 60.2657 16.2319C60.038 16.7642 59.5583 17.2439 58.5988 18.2034L48.095 28.707L55.4477 36.0594C56.4071 37.0189 56.8869 37.4986 57.1145 38.0309C57.4367 38.7844 57.4367 39.6368 57.1145 40.3902C56.8869 40.9225 56.4071 41.4023 55.4477 42.3617C54.4882 43.3212 54.0085 43.8009 53.4762 44.0285C52.7228 44.3507 51.8703 44.3507 51.1169 44.0285C50.5846 43.8009 50.1049 43.3212 49.1455 42.3618L44.3153 37.5316L25.0252 56.8214C23.4343 58.4123 22.6389 59.2077 21.6761 59.3602C21.3652 59.4094 21.0485 59.4094 20.7375 59.3602C19.7748 59.2077 18.9794 58.4123 17.3885 56.8214L14.5016 53.9346L13.678 53.111C12.0871 51.5201 11.2916 50.7246 11.1391 49.7619C11.0899 49.4509 11.0899 49.1342 11.1391 48.8233C11.2916 47.8605 12.0871 47.0651 13.6779 45.4742L13.678 45.4742Z" fill="#FCF3EE"/>
<path d="M16.5642 55.9982L12.3443 60.2181C11.7744 60.7879 10.8504 60.7877 10.2808 60.2177V60.2177C9.71143 59.6479 9.71161 58.7245 10.2812 58.1549L14.5019 53.9343M32.9679 26.1845L13.678 45.4742C12.0871 47.0651 11.2916 47.8605 11.1391 48.8233C11.0899 49.1342 11.0899 49.4509 11.1391 49.7619C11.2916 50.7246 12.0871 51.5201 13.678 53.111L17.3885 56.8214C18.9794 58.4123 19.7748 59.2077 20.7375 59.3602C21.0485 59.4094 21.3652 59.4094 21.6761 59.3602C22.6389 59.2077 23.4343 58.4123 25.0252 56.8214L44.3153 37.5316M32.9679 26.1845L28.1379 21.3545C27.1784 20.3951 26.6987 19.9154 26.4711 19.3831C26.1489 18.6297 26.1488 17.7773 26.471 17.0238C26.6987 16.4915 27.1784 16.0118 28.1378 15.0523V15.0523C29.0972 14.0929 29.577 13.6131 30.1093 13.3855C30.8627 13.0632 31.7151 13.0632 32.4686 13.3854C33.0009 13.6131 33.4806 14.0928 34.4401 15.0522L41.7927 22.4048M32.9679 26.1845L44.3153 37.5316M44.3153 37.5316L49.1455 42.3618C50.1049 43.3212 50.5846 43.8009 51.1169 44.0285C51.8704 44.3507 52.7228 44.3507 53.4762 44.0285C54.0085 43.8009 54.4882 43.3212 55.4477 42.3617V42.3617C56.4071 41.4023 56.8869 40.9225 57.1145 40.3902C57.4367 39.6368 57.4367 38.7844 57.1145 38.0309C56.8869 37.4986 56.4071 37.0189 55.4477 36.0594L48.095 28.707M41.7927 22.4048L52.2966 11.9011C53.2561 10.9416 53.7358 10.4619 54.2681 10.2343C55.0215 9.91206 55.8739 9.91206 56.6274 10.2343C57.1597 10.4619 57.6394 10.9416 58.5988 11.9011V11.9011C59.5583 12.8605 60.038 13.3403 60.2657 13.8726C60.5879 14.626 60.5879 15.4784 60.2657 16.2319C60.038 16.7642 59.5583 17.2439 58.5988 18.2034L48.095 28.707M41.7927 22.4048L48.095 28.707" stroke="#512729" stroke-width="1.5" stroke-linecap="round" stroke-linejoin="round"/>
</svg>
