<svg width="110" height="30" viewBox="0 0 110 30" fill="none" xmlns="http://www.w3.org/2000/svg">
<path opacity="0.5" fill-rule="evenodd" clip-rule="evenodd" d="M12.076 0C9.2794 0 6.73702 1.01695 4.70312 2.54237L18.5591 19.1949L29.8726 10.678C29.3641 4.70339 24.2794 0 18.0506 0" fill="#512729"/>
<path fill-rule="evenodd" clip-rule="evenodd" d="M18.0508 29.9999C24.661 29.9999 30 24.6609 30 18.0507V17.4151L19.7034 25.0422C18.5593 25.9321 16.9068 25.6778 16.0169 24.6609L1.27119 6.86426C0.508475 8.38968 0 10.1693 0 11.949V17.9236C0 24.5337 5.33898 29.8727 11.9492 29.8727" fill="#512729"/>
<g clip-path="url(#clip0_153_691)">
<path d="M44.6642 9.35421L44.9246 9.57741C45.0362 10.8422 45.0734 12.1628 45.0734 13.4276C45.0734 15.9944 44.7386 18.617 44.4968 20.3468L44.9618 20.3654C46.7846 18.5426 48.4772 15.6224 48.4772 13.4834C48.4772 11.7722 47.7704 10.6376 47.0822 9.91221L47.1194 9.67041C48.254 9.4472 49.5002 9.3728 50.4116 9.35421C50.8022 9.65181 51.044 10.061 51.044 10.8236C51.044 11.3444 50.9138 11.9768 50.6534 12.8138C49.8908 15.2876 45.3524 21.221 43.1576 22.5974C42.209 22.523 41.2976 22.2254 40.6094 21.8348C40.814 19.4726 40.9628 17.0174 40.9628 14.7296C40.9628 13.409 40.8884 12.2 40.7954 11.1956L39.1214 9.875L39.1586 9.6332C40.4606 9.50301 43.3622 9.35421 44.6642 9.35421ZM54.4234 10.9166C53.698 10.9166 53.1586 10.4516 53.1586 9.8006C53.1586 8.81481 54.1258 8.21961 54.9256 8.21961C55.651 8.21961 56.1718 8.6846 56.1718 9.31701C56.1718 10.3214 55.2232 10.9166 54.4234 10.9166ZM57.325 20.198C56.4322 21.2024 54.6094 22.5974 53.047 22.5974C51.7264 22.5974 50.7034 21.9092 50.7034 20.5142C50.7034 19.8446 50.9638 18.9518 51.2986 17.8916C51.6334 16.85 51.9868 15.6782 52.2286 14.3204L51.5218 13.2602L51.5776 12.9812C53.2516 12.7952 54.6652 12.7208 56.0416 12.7022L56.302 12.8882C56.302 13.6322 56.0788 15.2132 55.6324 16.7942C55.1488 18.5054 54.349 20.384 54.349 21.3326C54.349 21.5 54.3676 21.7046 54.4234 21.779C55.279 21.407 56.581 20.477 57.2692 19.7144L57.325 19.7702V20.198ZM65.0562 19.64C65.0562 21.7604 62.88 22.5974 61.0758 22.5974C59.1042 22.5974 57.0582 21.9836 56.37 21.035C56.7234 20.1794 57.3186 19.4168 57.9324 18.7844H58.1184C58.5462 19.8818 59.6064 22.151 60.8154 22.151C61.3734 22.151 61.8756 21.8162 61.8756 21.128C61.8756 20.1608 61.1874 19.8446 60.2946 19.2866C58.8252 18.3752 57.8766 17.7242 57.8766 16.385C57.8766 13.688 61.113 12.7022 63.252 12.7022C65.2422 12.7022 66.5628 13.4276 66.5628 14.5994C66.5628 15.3248 66.135 15.7712 65.5212 16.0874C64.5912 16.199 63.6798 16.2176 62.7498 16.2176L62.694 16.0316C63.1404 15.5294 63.5868 15.0458 63.5868 14.5622C63.5868 14.0228 63.0288 13.2974 62.2848 13.2974C61.7082 13.2974 61.1316 13.688 61.1316 14.6552C61.1316 15.6224 61.7454 16.1804 62.6382 16.7384C64.1076 17.6498 65.0562 18.3008 65.0562 19.64ZM80.1152 20.198C79.2224 21.2024 77.0276 22.5974 75.4652 22.5974C74.1446 22.5974 73.4192 21.9092 73.4192 20.7002C73.4192 19.6958 73.9586 18.0218 74.7398 16.478L74.4422 16.385C74.3864 16.4966 74.0888 17.1662 74.0144 17.315C72.824 19.9004 71.5778 22.5974 68.9924 22.5974C67.523 22.5974 66.7604 21.7232 66.7604 20.5142C66.7604 19.8632 67.2254 18.6542 67.6718 17.408C68.1368 16.1618 68.6018 14.897 68.6018 14.1158C68.6018 13.8368 68.4902 13.7624 68.3228 13.7624C68.0252 13.7624 67.5788 13.9298 67.2068 14.153L67.151 14.1158L67.2254 13.6322C68.0624 13.1858 69.2156 12.7022 70.2386 12.7022C71.6522 12.7022 72.2846 13.4276 72.2846 14.6366C72.2846 15.3062 71.894 16.571 71.5034 17.7614C71.1128 18.9704 70.7222 20.105 70.7222 20.5328C70.7222 20.8676 70.9082 20.9792 71.1128 20.9792C71.522 20.9792 72.1172 20.198 72.8054 18.8588C73.568 17.3894 74.4794 15.2504 75.4652 12.7022C76.7858 12.7952 78.2924 13.4462 78.8318 13.967C78.8318 15.269 76.7858 19.6214 76.7858 21.5C76.7858 21.6116 76.8044 21.7232 76.8416 21.779C78.3854 21.1466 79.4084 20.3654 80.0594 19.6772L80.1152 19.733V20.198ZM92.4615 20.012C91.5687 21.0164 89.1879 22.5974 87.6255 22.5974C86.3049 22.5974 85.5795 21.9092 85.5795 20.7002C85.5795 20.012 85.8399 19.3796 86.7885 17.7056L86.1561 17.7614C85.4121 19.547 84.1101 22.5974 82.0455 22.5974C80.5575 22.5974 79.4973 21.1094 79.4973 19.0262C79.4973 15.2876 81.5433 12.7022 84.5007 12.7022C85.4865 12.7022 86.2491 13.1114 86.7327 13.9484L86.5467 14.4134C86.1375 13.874 85.6725 13.2974 85.0773 13.2974C84.2403 13.2974 83.5149 15.8642 83.5149 18.7658C83.5149 19.9376 83.7009 20.5886 84.0543 20.5886C84.3519 20.5886 84.6867 19.9748 85.3749 18.338C85.8957 17.129 86.6025 15.3806 87.4581 12.9068C88.8159 13.0928 90.3039 13.8368 90.9363 14.5436C90.9363 15.1946 90.4341 16.664 89.9319 18.0962C89.4483 19.5284 88.9461 20.942 88.9461 21.5C88.9461 21.6116 88.9647 21.7232 89.0019 21.779C90.5457 21.1466 91.7547 20.1794 92.4057 19.4912L92.4615 19.547V20.012ZM93.9511 22.5974C92.5003 22.5974 91.6075 21.7976 91.6075 20.5142C91.6075 19.7888 91.7749 19.0262 92.1655 17.8358L93.7837 12.9068C94.2115 11.6048 94.3975 10.8422 94.4905 10.1168L93.8209 8.90781L93.8767 8.62881C95.3461 8.46141 96.7969 8.36841 98.3407 8.3498L98.5825 8.5172C98.5825 9.2054 98.2291 11.456 97.2433 14.5622C96.7039 16.2548 95.2717 19.9748 95.2717 21.3326C95.2717 21.5 95.3089 21.7046 95.3275 21.779C96.3133 21.3698 97.8757 20.3468 98.5081 19.64L98.5639 19.6958V20.1236C97.3921 21.4442 95.2159 22.5974 93.9511 22.5974ZM107.131 22.0766C105.941 24.9782 103.169 26.9498 100.193 26.9498C98.4637 26.9498 96.5665 26.3918 96.3619 24.7178C96.9199 23.6204 98.2591 22.3928 99.3565 21.9092C98.4637 21.6302 98.0173 20.8862 98.0173 19.9562C98.0173 19.2866 98.5009 18.2078 99.0031 17.1104C99.4867 15.9944 99.9703 14.8598 99.9703 14.0972C99.9703 13.8182 99.8587 13.7438 99.6913 13.7438C99.5053 13.7438 99.0961 13.8554 98.9287 13.967L98.8729 13.9298L98.9473 13.502C99.5239 13.1114 100.584 12.7022 101.607 12.7022C103.021 12.7022 103.653 13.409 103.653 14.618C103.653 15.2876 103.225 16.4222 102.816 17.501C102.388 18.5612 101.979 19.547 101.979 19.9748C101.979 20.3096 102.165 20.4212 102.37 20.4212C102.667 20.4212 103.114 19.9376 103.672 19.0076C104.416 17.7242 105.346 15.641 106.276 12.8882C107.41 13.0742 109.103 13.7066 109.754 14.5436C109.531 15.1016 107.912 20.198 107.131 22.0766ZM99.5797 23.0996C99.5797 24.6434 100.435 26.2616 101.867 26.2616C102.37 26.2616 102.928 24.7736 103.504 22.9508C104.062 21.1466 104.639 19.0262 105.197 17.687L104.825 17.7614C104.564 18.2822 104.285 18.7844 103.988 19.268C103.039 20.7932 101.849 22.0394 100.249 22.0394C100.063 22.0394 99.8959 22.0208 99.7285 22.0022C99.6355 22.3556 99.5797 22.7276 99.5797 23.0996Z" fill="#512729"/>
</g>
<defs>
<clipPath id="clip0_153_691">
<rect width="70.8" height="30" fill="white" transform="translate(39)"/>
</clipPath>
</defs>
</svg>
