<svg width="137" height="30" viewBox="0 0 137 30" fill="none" xmlns="http://www.w3.org/2000/svg">
<path d="M21.4693 4.76776C21.9664 4.26942 22.2739 3.58188 22.2739 2.82246C22.2739 1.30112 21.0406 0.0678711 19.5193 0.0678711C18.5575 0.0678711 17.7119 0.561498 17.2193 1.30846C17.0884 1.43962 1.96357 20.0796 1.86121 20.2349C1.36412 20.7332 1.05664 21.4208 1.05664 22.1802C1.05664 23.7015 2.28989 24.9348 3.81123 24.9348C4.77301 24.9348 5.61857 24.4411 6.11123 23.6942C6.24198 23.5629 21.3669 4.92288 21.4693 4.76776Z" fill="#512729"/>
<path d="M24.8014 14.917C25.2997 14.4185 25.6079 13.73 25.6079 12.9694C25.6079 11.4481 24.3746 10.2148 22.8533 10.2148C21.8911 10.2148 21.0452 10.709 20.5526 11.4565C20.4206 11.5885 10.146 24.2963 10.0428 24.4528C9.5445 24.9513 9.23633 25.6398 9.23633 26.4003C9.23633 27.9217 10.4696 29.1549 11.9909 29.1549C12.9531 29.1549 13.799 28.6609 14.2916 27.9132C14.4236 27.7812 24.6983 15.0735 24.8014 14.917Z" fill="#512729"/>
<path d="M4.95371 9.30829C6.47497 9.30829 7.70819 8.07507 7.70819 6.5538C7.70819 5.03254 6.47497 3.79932 4.95371 3.79932C3.43245 3.79932 2.19922 5.03254 2.19922 6.5538C2.19922 8.07507 3.43245 9.30829 4.95371 9.30829Z" fill="#512729"/>
<path d="M28.0514 9.31182C29.5727 9.31182 30.806 8.07857 30.806 6.55728C30.806 5.03599 29.5727 3.80273 28.0514 3.80273C26.5301 3.80273 25.2969 5.03599 25.2969 6.55728C25.2969 8.07857 26.5301 9.31182 28.0514 9.31182Z" fill="#512729"/>
<g clip-path="url(#clip0_153_705)">
<path d="M43.9381 21.71L39.8485 7.96276H41.2885L44.0725 17.4092C44.2645 18.0812 44.4373 18.7724 44.6101 19.6748C44.8405 18.6764 45.0325 18.0812 45.2437 17.4092L48.2389 7.96276H49.6789L52.6741 17.4092C52.8853 18.1004 53.0773 18.7916 53.2885 19.6748C53.4997 18.6188 53.6725 17.9468 53.8261 17.4284L56.6677 7.96276H58.0693L53.9413 21.71H52.6357L48.9493 10.0364L45.2629 21.71H43.9381ZM58.6872 21.71H57.2856L62.3352 7.96276H64.044L69.1512 21.71H67.7112L66.3672 18.062H60.0312L58.6872 21.71ZM63.0072 9.90196L60.4536 16.8524H65.9256L63.3528 9.90196C63.2952 9.70996 63.1992 9.47956 63.18 9.34516C63.1608 9.46036 63.084 9.70996 63.0072 9.90196ZM72.9369 15.9692L68.2713 7.96276H69.8265L73.2249 13.8956C73.3785 14.1836 73.4937 14.414 73.6281 14.7212C73.8009 14.3756 73.8009 14.3756 74.0505 13.8956L77.4105 7.96276H78.9273L74.3193 15.9692V21.71H72.9369V15.9692ZM83.1358 7.67476V19.4444H89.011V21.71H80.6782V7.67476H83.1358ZM93.4671 7.67476V21.71H91.0095V7.67476H93.4671ZM98.9974 21.71H96.5782V7.67476H99.0166L105.602 17.6204V7.67476H108.021V21.71H105.602L98.9974 11.7644V21.71ZM119.845 21.71H111.128V7.67476H119.845V9.94036H113.586V13.55H119.192V15.7196H113.586V19.4444H119.845V21.71Z" fill="#512729"/>
</g>
<defs>
<clipPath id="clip0_153_705">
<rect width="96.6" height="30" fill="white" transform="translate(39.8008)"/>
</clipPath>
</defs>
</svg>
